<svg xmlns="http://www.w3.org/2000/svg" width="10" height="14" viewBox="0 0 10 14">
    <g fill="none" fill-rule="evenodd" opacity=".6">
        <g fill="#292830" fill-rule="nonzero">
            <g>
                <g>
                    <path d="M.447 13.843c-.25-.01-.447-.217-.447-.467V1.865C0 .925.771.154 1.711.154h6.533c.94 0 1.712.77 1.712 1.71v11.512c0 .17-.091.327-.24.41-.149.084-.33.08-.475-.011L4.978 11.13.715 13.775c-.08.049-.174.072-.268.068zm.486-1.303l3.797-2.358c.151-.095.344-.095.496 0l3.796 2.358V1.865c0-.439-.339-.778-.778-.778H1.711c-.439 0-.778.34-.778.778V12.54z" transform="translate(-320 -1383) translate(15 1138) translate(305 245)"/>
                </g>
            </g>
        </g>
    </g>
</svg>
