<svg xmlns="http://www.w3.org/2000/svg" width="19" height="19" viewBox="0 0 19 19">
    <g fill="none" fill-rule="evenodd" opacity=".8">
        <g fill="#292830" fill-rule="nonzero" stroke="#292830" stroke-width=".15">
            <g>
                <g>
                    <g>
                        <g>
                            <path d="M17.766 9.117c.007-3.007-1.508-5.813-4.026-7.458C11.222.016 8.044-.243 5.292.972 2.542 2.187.593 4.712.114 7.68c-.48 2.968.574 5.978 2.802 7.997.038.053.086.097.141.13C4.67 17.22 6.74 18 8.883 18s4.214-.779 5.826-2.192c.055-.033.103-.077.14-.13 1.856-1.677 2.916-4.06 2.917-6.561h0zm-16.831 0C.93 6.482 2.23 4.015 4.407 2.53c2.178-1.483 4.95-1.791 7.4-.823 2.449.97 4.26 3.09 4.833 5.662.574 2.571-.164 5.26-1.97 7.178-.498-1.002-1.898-2.59-5.787-2.59-3.889 0-5.289 1.59-5.786 2.59C1.709 13.081.936 11.137.935 9.117h0zm2.882 6.119c.217-.626 1.168-2.338 5.066-2.338 3.898 0 4.85 1.71 5.066 2.338-1.423 1.182-3.216 1.829-5.066 1.829-1.85 0-3.642-.647-5.066-1.83zm5.066-4.53c1.011 0 1.98-.401 2.695-1.116.715-.714 1.117-1.684 1.117-2.695 0-1.01-.402-1.98-1.117-2.694-.714-.715-1.684-1.117-2.695-1.117-1.01 0-1.98.402-2.695 1.117-.715.714-1.116 1.684-1.116 2.694.002 1.011.403 1.98 1.117 2.694.715.714 1.683 1.116 2.694 1.118h0zm0-6.687c1.163 0 2.213.701 2.657 1.776.446 1.075.2 2.311-.623 3.134s-2.06 1.07-3.134.624c-1.075-.445-1.776-1.494-1.776-2.658.004-1.586 1.29-2.87 2.876-2.872v-.004z" transform="translate(-315 -1828) translate(0 1816) translate(20 12) translate(282.5) translate(13.5)"/>
                        </g>
                    </g>
                </g>
            </g>
        </g>
    </g>
</svg>
