<svg xmlns="http://www.w3.org/2000/svg" width="39" height="34" viewBox="0 0 39 34">
    <g fill="none" fill-rule="evenodd">
        <g fill="#5446FF">
            <g>
                <g>
                    <path d="M13.317 0c-.528 0-.951.424-.951.951v2.854h14.268V.95c0-.527-.423-.951-.951-.951H13.317zM4.28 4.756C1.91 4.756 0 6.666 0 9.036v4.668c4.355 2.359 10.248 3.953 16.84 4.295.412-1.07 1.445-1.828 2.66-1.828s2.248.758 2.66 1.828c6.592-.342 12.485-1.936 16.84-4.295V9.037c0-2.371-1.91-4.28-4.28-4.28H4.28zM0 15.844v13.168c0 2.37 1.91 4.28 4.28 4.28h30.44c2.37 0 4.28-1.91 4.28-4.28V15.844c-4.557 2.268-10.373 3.732-16.795 4.057-.371 1.146-1.436 1.977-2.705 1.977-1.269 0-2.333-.83-2.705-1.977-6.422-.323-12.237-1.79-16.795-4.057z" transform="translate(-195 -244) translate(185 219) translate(10 25)"/>
                </g>
            </g>
        </g>
    </g>
</svg>
