<svg xmlns="http://www.w3.org/2000/svg" width="40" height="43" viewBox="0 0 40 43">
    <g fill="none" fill-rule="evenodd">
        <g fill-rule="nonzero" stroke="#FFF">
            <g>
                <g>
                    <path fill="#5446FF" stroke-linejoin="round" stroke-width="1.2" d="M18.81 7.1c-6.717 0-12.092 5.376-12.092 12.094 0 4.03 1.92 7.485 4.99 9.789v1.727c0 .769.575 1.535 1.535 1.535h11.324c.768 0 1.535-.575 1.535-1.535v-1.727c3.262-2.304 4.99-5.951 4.99-9.79-.19-6.717-5.564-12.092-12.282-12.092z" transform="translate(-24 -239) translate(15 219) translate(10.077 21.385)"/>
                    <g fill="#FFF" stroke-width=".5">
                        <path d="M5.41 1.718c.22 0 .4.179.4.4 0 .22-.18.4-.4.4h0H4.12L2.962 4.525c-.087.151-.249.244-.423.244h0H.857v.043l3.1 3.1c.157.156.157.41 0 .566-.155.156-.409.156-.565 0h0L.201 5.286C.109 5.194.057 5.07.057 4.94h0v-.482c0-.27.22-.489.49-.489h1.53c.174 0 .336-.093.423-.244h0l.697-1.207H.547c-.22 0-.4-.18-.4-.4 0-.221.18-.4.4-.4h0zm0-1.678c.22 0 .4.179.4.4 0 .22-.18.4-.4.4H.546c-.22 0-.4-.18-.4-.4 0-.221.18-.4.4-.4H5.41z" transform="translate(-24 -239) translate(15 219) translate(10.077 21.385) translate(16.423 15.615)"/>
                    </g>
                    <path fill="#5446FF" stroke-linejoin="round" stroke-width="1.2" d="M23.224 33.206h-8.828c-.768 0-1.344.576-1.344 1.535v1.152c0 2.496 2.11 4.607 4.607 4.607h2.495c2.496 0 4.607-2.111 4.607-4.607v-1.152c-.192-.959-.768-1.535-1.537-1.535h0zM18.81 5.757c.769 0 1.535-.576 1.535-1.535V1.535C20.345.767 19.77 0 18.81 0s-1.535.576-1.535 1.535v2.687c.191.768.767 1.535 1.535 1.535zM5.566 19.194c0-.769-.576-1.535-1.535-1.535H1.535c-.768 0-1.535.575-1.535 1.535 0 .959.576 1.534 1.535 1.534h2.687c.768-.19 1.344-.766 1.344-1.534zM36.086 17.659h-2.687c-.769 0-1.535.575-1.535 1.535 0 .959.576 1.534 1.535 1.534h2.687c.768 0 1.534-.575 1.534-1.534 0-.96-.766-1.535-1.534-1.535zM7.486 9.787c.193.193.576.384.96.384.382.002.767-.191.958-.384.576-.575.576-1.534 0-2.11l-1.92-1.92c-.576-.576-1.535-.576-2.11 0-.577.575-.577 1.535 0 2.11l2.112 1.92zM30.135 28.407c-.576-.576-1.535-.576-2.111 0-.576.576-.576 1.535 0 2.11l1.92 1.92c.192.193.576.384.959.384s.768-.192.96-.383c.575-.576.575-1.535 0-2.11l-1.728-1.921zM29.175 10.173c.384 0 .769-.193.96-.384l1.92-1.92c.575-.576.575-1.535 0-2.11-.576-.576-1.535-.576-2.111 0l-1.92 1.92c-.576.575-.576 1.534 0 2.11.383.191.768.384 1.151.384zM7.486 28.407l-1.92 1.92c-.576.576-.576 1.535 0 2.11.192.193.576.384.959.384s.768-.192.96-.383l1.92-1.92c.575-.576.575-1.535 0-2.111-.577-.576-1.343-.576-1.92 0h.001z" transform="translate(-24 -239) translate(15 219) translate(10.077 21.385)"/>
                </g>
            </g>
        </g>
    </g>
</svg>
