<svg xmlns="http://www.w3.org/2000/svg" width="41" height="37" viewBox="0 0 41 37">
    <g fill="none" fill-rule="evenodd">
        <g fill="#5446FF">
            <g>
                <g>
                    <path d="M31.158 29.385v-6.329c-.584.253-1.246.506-1.947.74v5.59c-1.164.412-1.944 1.51-1.948 2.745v3.895c0 .259.103.506.285.688.183.183.43.286.689.286h3.895c.258 0 .505-.103.688-.286.183-.182.285-.43.285-.688V32.13c-.004-1.234-.783-2.333-1.947-2.746zm2.668-15.033l-2.668 1.07v7.634c1.204-.496 2.364-1.095 3.467-1.791.268-.184.43-.49.428-.818v-6.582l-1.227.487zM21.539 19.26h-.002c-.342.15-.715.224-1.09.214-.433.006-.861-.095-1.245-.292l-13.36-5.316v6.582c-.001.327.16.634.428.818 4.28 2.596 9.174 3.996 14.178 4.05 2.985-.018 5.946-.532 8.763-1.519v-7.595l-7.672 3.058zM40.292 7.867L20.82.077c-.238-.096-.504-.096-.742 0L.603 7.868c-.357.153-.591.506-.591.896s.234.744.591.896l5.24 2.103 1.947.78 12.287 4.906c.236.105.506.105.742 0L29.21 14.1v-.78l-9.134-3.66c-.263-.08-.48-.267-.596-.516-.118-.247-.125-.534-.02-.787.104-.255.311-.453.57-.544.259-.093.544-.074.787.055l9.737 3.895c.367.145.607.5.603.896v.662l3.895-1.56 5.24-2.103v.002c.357-.152.59-.506.59-.896s-.233-.744-.59-.896z" transform="translate(-195 -365) translate(185 337) translate(10 28)"/>
                </g>
            </g>
        </g>
    </g>
</svg>
