<svg xmlns="http://www.w3.org/2000/svg" width="12" height="12" viewBox="0 0 12 12">
    <g fill="none" fill-rule="evenodd">
        <g fill="#292830" fill-rule="nonzero">
            <g>
                <g>
                    <path d="M.204 2.26L2.284.181c.236-.237.6-.237.836 0l2.08 2.08c.306.306.264.836-.113 1.088-.279.181-.67.125-.907-.112L3.4 2.455v8.763c0 .391-.321.712-.712.712-.39 0-.712-.32-.712-.712V2.47l-.753.767c-.237.237-.613.293-.907.112-.376-.252-.418-.781-.111-1.089zm8.609 9.503c.237.237.6.237.837 0l2.079-2.079c.307-.307.265-.837-.112-1.088-.279-.182-.67-.126-.907.111l-.781.782V.712C9.93.32 9.61 0 9.217 0c-.39 0-.712.321-.712.712v8.763l-.781-.782c-.237-.237-.614-.293-.907-.112-.39.252-.419.782-.112 1.089l2.108 2.093z" transform="translate(-267 -176) translate(255 164) translate(12 12)"/>
                </g>
            </g>
        </g>
    </g>
</svg>
