<svg xmlns="http://www.w3.org/2000/svg" width="14" height="8" viewBox="0 0 14 8">
    <g fill="none" fill-rule="evenodd">
        <g fill="#5446FF" fill-rule="nonzero">
            <g>
                <g>
                    <path d="M6.761.226c-.148.022-.284.089-.391.192L.458 6.093c-.15.127-.24.309-.25.504-.011.195.059.386.193.527.135.142.322.222.517.22.196 0 .382-.08.516-.224l5.423-5.209 5.424 5.21c.134.143.32.224.515.224s.383-.079.518-.22c.134-.142.204-.333.193-.528-.01-.195-.1-.377-.25-.504L7.344.42C7.19.27 6.975.2 6.761.227z" transform="translate(-311 -383) translate(15 357) rotate(-180 155 17)"/>
                </g>
            </g>
        </g>
    </g>
</svg>
