<svg xmlns="http://www.w3.org/2000/svg" width="14" height="18" viewBox="0 0 14 18">
    <g fill="none" fill-rule="evenodd" opacity=".8">
        <g fill="#292830" fill-rule="nonzero">
            <g>
                <g>
                    <g>
                        <g>
                            <path d="M.575 17.798c-.322-.014-.575-.279-.575-.6v-14.8c0-1.209.991-2.2 2.2-2.2h8.4c1.209 0 2.2.991 2.2 2.2v14.8c.002.218-.116.42-.308.528-.191.107-.425.1-.61-.016L6.4 14.31l-5.481 3.4c-.103.063-.223.094-.344.088zm.625-1.675L6.08 13.09c.195-.121.442-.121.638 0l4.88 3.032V2.398c0-.564-.435-1-1-1H2.2c-.563 0-1 .436-1 1v13.725z" transform="translate(-173 -1828) translate(0 1816) translate(20 12) translate(143.5) translate(10)"/>
                        </g>
                    </g>
                </g>
            </g>
        </g>
    </g>
</svg>
