<svg xmlns="http://www.w3.org/2000/svg" width="41" height="34" viewBox="0 0 41 34">
    <g fill="none" fill-rule="evenodd">
        <g fill="#292830" fill-rule="nonzero" stroke="#FFF" stroke-width=".85">
            <g>
                <g>
                    <path d="M13.778 0c-1.209 0-2.222 1.014-2.222 2.222v2.222H5.333C2.401 4.444 0 6.845 0 9.778v16.889C0 29.599 2.401 32 5.333 32h28.445c2.932 0 5.333-2.401 5.333-5.333V9.777c0-2.932-2.4-5.333-5.333-5.333h-6.222V2.222C27.556 1.014 26.542 0 25.333 0H13.778zm.444 2.667H24.89v1.777H14.222V2.667zM5.333 7.11h28.445c1.5 0 2.666 1.167 2.666 2.667V13c-3.47 1.917-8.062 3.286-13.194 3.736-.597-1.462-2.03-2.514-3.695-2.514s-3.097 1.052-3.694 2.514c-5.136-.448-9.722-1.82-13.195-3.736V9.778c0-1.5 1.167-2.667 2.667-2.667h0zM2.666 16c3.676 1.785 8.157 2.964 13.07 3.375.502 1.637 2.028 2.847 3.82 2.847 1.791 0 3.317-1.21 3.819-2.847 4.916-.41 9.392-1.59 13.07-3.375v10.667c0 1.5-1.167 2.666-2.667 2.666H5.333c-1.5 0-2.667-1.166-2.667-2.666V16zm16.89.889c.751 0 1.333.581 1.333 1.333s-.582 1.334-1.333 1.334c-.752 0-1.334-.582-1.334-1.334 0-.752.582-1.333 1.334-1.333z" transform="translate(-194 -244) translate(185 219) translate(10 26)"/>
                </g>
            </g>
        </g>
    </g>
</svg>
