<svg xmlns="http://www.w3.org/2000/svg" width="16" height="16" viewBox="0 0 16 16">
    <g fill="none" fill-rule="evenodd">
        <g fill="#5446FF" fill-rule="nonzero">
            <g>
                <g>
                    <path d="M13.333 1.94h-.97V.727c0-.402-.325-.727-.727-.727-.402 0-.727.326-.727.727V1.94H5.092V.728C5.092.326 4.766 0 4.365 0c-.403 0-.728.326-.728.727V1.94h-.97C1.194 1.94 0 3.134 0 4.607v8.728C0 14.806 1.194 15.999 2.667 16h10.666C14.806 16 16 14.806 16 13.333V4.606c0-1.473-1.194-2.666-2.667-2.666zM2.667 3.394h.97v.242c0 .401.325.727.727.727.401 0 .727-.326.727-.727v-.242h5.818v.242c0 .401.326.727.727.727.402 0 .727-.326.727-.727v-.242h.97c.67.001 1.211.543 1.212 1.212v.725H1.455v-.725c0-.67.542-1.21 1.212-1.212zm10.666 11.152H2.667c-.67-.002-1.211-.543-1.212-1.212v-6.55h13.09v6.55c0 .669-.542 1.21-1.212 1.212z" transform="translate(-309 -440) translate(15 357) translate(294 83)"/>
                </g>
            </g>
        </g>
    </g>
</svg>
