<svg xmlns="http://www.w3.org/2000/svg" width="18" height="18" viewBox="0 0 18 18">
    <g fill="none" fill-rule="evenodd">
        <g fill="#292830" fill-rule="nonzero">
            <g>
                <path d="M12.961 13.292c-1.263 0-2.29 1.026-2.29 2.29 0 1.263 1.027 2.29 2.29 2.29 1.263 0 2.29-1.027 2.29-2.29 0-1.263-1.026-2.29-2.29-2.29zm0 3.189c-.494 0-.9-.405-.9-.9 0-.494.406-.899.9-.899.495 0 .9.405.9.9 0 .494-.401.899-.9.899zM.89 1.52h.964c.515 0 .932.42.932.94v7.856c0 1.284 1.05 2.322 2.339 2.322h9.34c.385 0 .696-.31.696-.695 0-.384-.311-.695-.695-.695H5.125c-.52 0-.949-.412-.949-.932v-.045l9.3-.053c1.443-.008 2.694-.993 3.042-2.395l1.267-5.143c.053-.208.004-.433-.127-.6-.13-.168-.33-.27-.543-.27h-.004l-12.996.069C3.853.869 2.938.129 1.855.129H.89C.505.13.195.44.195.824c0 .385.31.695.695.695zm3.286 1.753l12.043-.061-1.05 4.276c-.192.78-.896 1.332-1.7 1.336l-9.293.058v-5.61zM3.22 15.582c0 1.263 1.026 2.289 2.289 2.289 1.263 0 2.29-1.026 2.29-2.29 0-1.263-1.027-2.289-2.29-2.289-1.263 0-2.29 1.026-2.29 2.29zm3.188 0c0 .494-.404.899-.9.899-.494 0-.898-.405-.898-.9 0-.494.404-.899.899-.899s.9.405.9.9z" transform="translate(-322 -23) translate(322 23)"/>
            </g>
        </g>
    </g>
</svg>
