<svg xmlns="http://www.w3.org/2000/svg" width="17" height="19" viewBox="0 0 17 19">
    <g fill="none" fill-rule="evenodd" opacity=".8">
        <g fill="#292830" fill-rule="nonzero" stroke="#FFF" stroke-width=".2">
            <g>
                <g>
                    <g>
                        <g>
                            <path d="M14.016.279H2.106C1.048.283.193 1.139.188 2.195v15.851c-.001.236.122.455.324.576.106.064.227.098.35.099.107-.002.211-.027.307-.072l5.253-2.627h7.593c1.056-.004 1.912-.86 1.916-1.916V2.195c-.004-1.056-.86-1.912-1.916-1.916h0zm.567 13.827c0 .313-.254.567-.567.567H6.261c-.105.001-.21.026-.306.072l-4.417 2.213V2.195c0-.312.254-.567.567-.567h11.911c.313 0 .567.255.567.567v11.911z" transform="translate(-244 -1828) translate(0 1816) translate(20 12) translate(219) translate(5)"/>
                            <path d="M11.515 8.915c-.32-.166-.713-.056-.9.252-.522.901-1.486 1.455-2.527 1.455-1.042 0-2.005-.554-2.528-1.455-.187-.308-.58-.418-.9-.252-.308.187-.415.583-.243.9.765 1.319 2.173 2.13 3.698 2.13s2.933-.811 3.697-2.13c.163-.33.032-.731-.297-.9h0z" transform="translate(-244 -1828) translate(0 1816) translate(20 12) translate(219) translate(5)"/>
                        </g>
                    </g>
                </g>
            </g>
        </g>
    </g>
</svg>
