<?xml version="1.0" encoding="UTF-8"?>
<svg width="19px" height="20px" viewBox="0 0 19 20" version="1.1" xmlns="http://www.w3.org/2000/svg" xmlns:xlink="http://www.w3.org/1999/xlink">
    <!-- Generator: Sketch 63.1 (92452) - https://sketch.com -->
    <title>np_bin_2956146_000000@3x</title>
    <desc>Created with Sketch.</desc>
    <g id="Page-1" stroke="none" stroke-width="1" fill="none" fill-rule="evenodd">
        <g id="Cart_More" transform="translate(-243.000000, -122.000000)" fill="#292830" fill-rule="nonzero">
            <g id="np_bin_2956146_000000" transform="translate(243.000000, 122.000000)">
                <path d="M5.8664,15.193 C6.2453,15.193 6.5539,14.88832 6.55936,14.5094 L6.55936,8.9406 C6.55936,8.55778 6.2492,8.24764 5.8664,8.24764 C5.48358,8.24764 5.17264,8.5578 5.17264,8.9406 L5.17264,14.5094 C5.1781088,14.8883 5.4867,15.193 5.8664,15.193 Z" id="Path"></path>
                <path d="M9.2,15.193 C9.5789,15.193 9.88828,14.88832 9.89296,14.5094 L9.89296,8.9406 C9.89296,8.55778 9.5828,8.24764 9.2,8.24764 C8.8172,8.24764 8.50704,8.5578 8.50704,8.9406 L8.50704,14.5094 C8.5117276,14.8883 8.8211,15.193 9.2,15.193 Z" id="Path"></path>
                <path d="M12.5336,15.193 C12.91328,15.193 13.22188,14.88832 13.22736,14.5094 L13.22736,8.9406 C13.22736,8.55778 12.91642,8.24764 12.5336,8.24764 C12.15078,8.24764 11.84064,8.5578 11.84064,8.9406 L11.84064,14.5094 C11.8461088,14.8883 12.1547,15.193 12.5336,15.193 Z" id="Path"></path>
                <path d="M17.5344,3.3562 L13.0984,3.3562 L12.5273,1.44448 C12.26792,0.59136 11.48434,0.0062 10.59292,-6e-05 L7.81012,-6e-05 C6.91872,0.00619 6.13512,0.59134 5.87574,1.44448 L5.30542,3.3562 L0.86562,3.3562 C0.4828,3.3562 0.17186,3.66714 0.17186,4.04996 C0.17186,4.43278 0.4828,4.74292 0.86562,4.74292 L1.69062,4.74292 L1.69062,18.08832 C1.6976512,19.13988 2.55156,19.98832 3.60234,19.99066 L14.81954,19.99066 C15.875,19.9883162 16.7297,19.13362 16.73204,18.07816 L16.73204,4.72036 L17.53516,4.72036 L17.5343788,4.72036 C17.9171988,4.72036 18.2281388,4.4102 18.2281388,4.0274 C18.2273576,3.845368 18.1531388,3.67194 18.0226788,3.54616 C17.8922108,3.419598 17.7164388,3.351628 17.5343988,3.356316 L17.5344,3.3562 Z M7.2164,1.84058 L7.2171814,1.8413612 C7.2976494,1.5788612 7.5359414,1.3960412 7.8101414,1.3866812 L10.6125414,1.3866812 C10.8937814,1.3843374 11.1414414,1.5718372 11.2148814,1.8445012 L11.6602014,3.3570012 L6.7368014,3.35622 L7.2164,1.84058 Z M15.3454,18.22958 L15.296962,18.22958 C15.223524,18.44208 15.025082,18.58582 14.800862,18.59052 L3.602462,18.59052 C3.310282,18.5858326 3.075902,18.34834 3.074342,18.05536 L3.074342,4.72016 L15.3454,4.72016 L15.3454,18.22958 Z" id="Shape"></path>
            </g>
        </g>
    </g>
</svg>