<svg xmlns="http://www.w3.org/2000/svg" width="30" height="30" viewBox="0 0 30 30">
    <g fill="none" fill-rule="evenodd">
        <g>
            <g>
                <g transform="translate(-15 -150) translate(15 150)">
                    <rect width="30" height="30" fill="#F7F7F7" rx="4"/>
                    <g fill="#292830" fill-rule="nonzero" stroke="#F7F7F7" stroke-width=".2">
                        <path d="M0 14.069C0 15.136.864 16 1.931 16h11.035c1.066 0 1.93-.864 1.93-1.931v-2.207c0-.457-.37-.828-.827-.828-.457 0-.828.371-.828.828v2.207h0c0 .073-.029.143-.08.195-.052.052-.122.08-.195.08H1.93c-.152 0-.276-.123-.276-.275v-2.207c0-.457-.37-.828-.827-.828-.457 0-.828.371-.828.828v2.207h0z" transform="translate(7.5 7)"/>
                        <path d="M6.62.828v7.934h0L4.724 6.864c-.323-.323-.847-.323-1.17 0-.323.323-.323.846 0 1.169l3.31 3.31h0c.323.323.847.323 1.17 0l3.31-3.31c.323-.323.323-.846 0-1.17-.323-.322-.846-.322-1.17 0L8.277 8.763h0V.828C8.276.37 7.906 0 7.448 0c-.457 0-.827.37-.827.828z" transform="translate(7.5 7)"/>
                    </g>
                </g>
            </g>
        </g>
    </g>
</svg>
