<svg xmlns="http://www.w3.org/2000/svg" width="9" height="5" viewBox="0 0 9 5">
    <g fill="none" fill-rule="evenodd">
        <g fill="#545359" fill-rule="nonzero">
            <g>
                <g>
                    <path d="M4.226.141c-.093.014-.178.056-.245.12L.286 3.809c-.093.08-.15.193-.156.315-.007.122.037.241.12.33.085.088.202.138.324.138s.238-.051.322-.14l3.39-3.257 3.39 3.256c.083.09.2.14.322.14.122.001.239-.049.323-.137.084-.089.128-.208.12-.33-.006-.122-.062-.236-.156-.315L4.591.262C4.494.17 4.359.125 4.226.142z" transform="translate(-194 -333) translate(15 320) rotate(-180 94 9)"/>
                </g>
            </g>
        </g>
    </g>
</svg>
