<svg xmlns="http://www.w3.org/2000/svg" width="60" height="60" viewBox="0 0 60 60">
    <g fill="none" fill-rule="evenodd">
        <g fill="#292830" fill-rule="nonzero">
            <g>
                <path d="M46.403 4.874c-8.505-5.544-19.237-6.416-28.53-2.32C8.586 6.655 2.004 15.174.386 25.188c-1.622 10.015 1.94 20.168 9.465 26.98.126.178.29.326.475.437C15.768 57.372 22.762 60 30 60c7.238 0 14.231-2.628 19.675-7.396.185-.111.348-.26.475-.438C56.416 46.51 59.997 38.47 60 30.033c.021-10.144-5.095-19.61-13.597-25.159z" opacity=".095" transform="translate(-15 -82) translate(15 82)"/>
                <g>
                    <path d="M27.842 2.925C22.739-.402 16.299-.925 10.724 1.533 5.151 3.993 1.202 9.103.231 15.113-.742 21.12 1.395 27.212 5.91 31.3c.076.107.174.196.285.262C9.46 34.423 13.657 36 18 36c4.342 0 8.539-1.577 11.805-4.438.11-.066.209-.155.285-.262 3.76-3.394 5.908-8.218 5.91-13.28.013-6.087-3.057-11.767-8.158-15.095zM8.93 4.69c4.413-3.002 10.029-3.627 14.993-1.666 4.964 1.961 8.634 6.253 9.796 11.46 1.162 5.205-.333 10.648-3.993 14.53-1.009-2.03-3.845-5.242-11.726-5.242-7.88 0-10.717 3.218-11.725 5.241-2.811-2.97-4.378-6.905-4.38-10.993C1.884 12.686 4.519 7.693 8.93 4.69zm14.53 14.287c1.449-1.445 2.263-3.408 2.263-5.454s-.814-4.009-2.263-5.454c-1.447-1.447-3.412-2.26-5.46-2.26s-4.013.813-5.46 2.26c-1.449 1.445-2.263 3.408-2.263 5.454.004 2.046.818 4.005 2.265 5.452 1.449 1.446 3.41 2.259 5.458 2.263 2.048 0 4.013-.814 5.46-2.26z" transform="translate(-15 -82) translate(15 82) translate(12 12)"/>
                </g>
            </g>
        </g>
    </g>
</svg>
