<svg xmlns="http://www.w3.org/2000/svg" width="16" height="14" viewBox="0 0 16 14">
    <g fill="none" fill-rule="evenodd">
        <g fill="#5F53F7" fill-rule="nonzero">
            <g>
                <g>
                    <path d="M5.744 0c-.233.003-.461.166-.552.34L4.538 1.64H1.846C.834 1.641 0 2.475 0 3.487v7.795c0 1.012.834 1.846 1.846 1.846h12.308c1.012 0 1.846-.834 1.846-1.846V3.487c0-1.012-.834-1.846-1.846-1.846h-2.692L10.808.34c-.102-.204-.324-.34-.552-.34H5.744zm.384 1.23h3.744l.654 1.302c.101.204.323.34.55.34h3.078c.352 0 .615.263.615.615v7.795c0 .352-.263.615-.615.615H1.846c-.352 0-.615-.263-.615-.615V3.487c0-.352.263-.615.615-.615h3.077c.228 0 .45-.136.551-.34l.654-1.301zM8 3.693c-2.032 0-3.692 1.66-3.692 3.693 0 2.032 1.66 3.692 3.692 3.692s3.692-1.66 3.692-3.692S10.032 3.692 8 3.692zm0 1.231c1.367 0 2.462 1.095 2.462 2.462 0 1.367-1.095 2.461-2.462 2.461-1.367 0-2.462-1.094-2.462-2.461 0-1.367 1.095-2.462 2.462-2.462z" transform="translate(-56 -124) translate(49 116) translate(7 8)"/>
                </g>
            </g>
        </g>
    </g>
</svg>
