<svg xmlns="http://www.w3.org/2000/svg" width="40" height="43" viewBox="0 0 40 43">
    <g fill="none" fill-rule="evenodd">
        <g fill="#292830" fill-rule="nonzero">
            <g>
                <g>
                    <path stroke="#FFF" stroke-linejoin="round" stroke-width="1.2" d="M18.888 7.486c-6.718 0-12.093 5.375-12.093 12.093 0 4.03 1.92 7.486 4.99 9.789v1.728c0 .768.576 1.534 1.535 1.534h11.324c.769 0 1.535-.575 1.535-1.534v-1.728c3.263-2.303 4.99-5.951 4.99-9.79-.189-6.717-5.564-12.092-12.281-12.092zm5.017 19.962c-.383.192-.768.768-.768 1.152v1.151h-8.254V28.6c0-.576-.193-.96-.769-1.152C11.428 25.72 9.7 22.84 9.7 19.578c0-5.182 4.223-9.213 9.213-9.213 4.99 0 9.214 4.224 9.214 9.214.193 3.262-1.342 6.141-4.222 7.869h0z" transform="translate(-24 -239) translate(15 219) translate(10 21)"/>
                    <g stroke="#292830" stroke-width=".5">
                        <path d="M5.41 1.718c.22 0 .4.179.4.4 0 .22-.18.4-.4.4h0H4.12L2.962 4.525c-.087.151-.249.244-.423.244h0H.857v.043l3.1 3.1c.157.156.157.41 0 .566-.155.156-.409.156-.565 0h0L.201 5.286C.109 5.194.057 5.07.057 4.94h0v-.482c0-.27.22-.489.49-.489h1.53c.174 0 .336-.093.423-.244h0l.697-1.207H.547c-.22 0-.4-.18-.4-.4 0-.221.18-.4.4-.4h0zm0-1.678c.22 0 .4.179.4.4 0 .22-.18.4-.4.4H.546c-.22 0-.4-.18-.4-.4 0-.221.18-.4.4-.4H5.41z" transform="translate(-24 -239) translate(15 219) translate(10 21) translate(16.5 16)"/>
                    </g>
                    <path stroke="#FFF" stroke-linejoin="round" stroke-width="1.2" d="M23.302 33.591h-8.829c-.768 0-1.344.576-1.344 1.535v1.152c0 2.496 2.111 4.607 4.607 4.607h2.496c2.496 0 4.607-2.111 4.607-4.607v-1.152c-.193-.959-.769-1.535-1.537-1.535h0zm-3.179 4.415h-2.495c-.96 0-1.535-.576-1.728-1.535h5.951c0 .959-.768 1.535-1.728 1.535zM18.888 6.142c.768 0 1.535-.576 1.535-1.535V1.92c0-.768-.576-1.535-1.535-1.535-.96 0-1.535.576-1.535 1.535v2.687c.19.768.766 1.535 1.535 1.535zM5.643 19.579c0-.769-.576-1.535-1.535-1.535H1.612c-.768 0-1.535.576-1.535 1.535s.576 1.535 1.535 1.535H4.3c.768-.191 1.344-.767 1.344-1.535zM36.163 18.044h-2.687c-.768 0-1.535.576-1.535 1.535s.576 1.535 1.535 1.535h2.687c.768 0 1.535-.576 1.535-1.535 0-.96-.767-1.535-1.535-1.535zM7.563 10.173c.193.192.576.383.96.383.383.002.768-.19.959-.383.575-.576.575-1.535 0-2.111l-1.92-1.92c-.576-.576-1.535-.576-2.111 0-.576.576-.576 1.535 0 2.11l2.112 1.92zM30.212 28.792c-.576-.576-1.535-.576-2.11 0-.577.576-.577 1.535 0 2.11l1.92 1.921c.192.193.575.383.958.383.384 0 .769-.192.96-.383.575-.576.575-1.535 0-2.11l-1.728-1.92zM29.253 10.558c.383 0 .768-.193.959-.384l1.92-1.92c.576-.575.576-1.535 0-2.11-.576-.576-1.535-.576-2.11 0l-1.92 1.92c-.577.575-.577 1.535 0 2.11.382.191.768.384 1.15.384zM7.563 28.792l-1.92 1.92c-.576.576-.576 1.535 0 2.111.193.193.576.383.96.383.383 0 .768-.192.959-.383l1.92-1.92c.575-.576.575-1.535 0-2.11-.576-.577-1.343-.577-1.919 0h0z" transform="translate(-24 -239) translate(15 219) translate(10 21)"/>
                </g>
            </g>
        </g>
    </g>
</svg>
