<svg xmlns="http://www.w3.org/2000/svg" width="17" height="12" viewBox="0 0 17 12">
    <g fill="none" fill-rule="evenodd">
        <g fill="#FFF" fill-rule="nonzero">
            <g>
                <g>
                    <g>
                        <g>
                            <g>
                                <path d="M8.4.299l.334.008c1.67.067 3.287.615 4.654 1.584l.269.198.26.208c1.112.923 1.975 2.111 2.51 3.456L16.52 6l-.08.215c-.833 2.134-2.484 3.853-4.592 4.77-2.199.959-4.697.959-6.896 0l-.272-.124-.28-.14C2.557 9.759 1.12 8.159.36 6.215L.28 6l.093-.247c.617-1.552 1.672-2.895 3.04-3.862C4.779.922 6.396.374 8.066.307L8.4.299zm0 1.267l-.327.009c-1.305.062-2.573.468-3.674 1.18-1.192.772-2.137 1.87-2.722 3.163v.164l.128.271c.804 1.607 2.17 2.869 3.842 3.542 1.767.71 3.74.71 5.506 0s3.189-2.077 3.97-3.813v-.164l-.13-.274c-.59-1.175-1.485-2.172-2.592-2.888l-.279-.172C10.995 1.923 9.711 1.57 8.4 1.574v-.008z" transform="translate(-26 -1369) translate(15 1228) translate(0 125) translate(-2 6) translate(13 8) translate(0 2)"/>
                                <path d="M10.241 5.266c-.61-.004-1.104-.497-1.107-1.107.01-.33.17-.636.432-.834-.364-.173-.762-.266-1.166-.275-.782 0-1.533.31-2.086.864C5.761 4.467 5.45 5.218 5.45 6c0 .782.31 1.533.864 2.086.553.553 1.304.864 2.086.864.782 0 1.533-.31 2.086-.864.553-.553.864-1.304.864-2.086.002-.402-.08-.8-.241-1.166-.206.272-.527.432-.868.432z" transform="translate(-26 -1369) translate(15 1228) translate(0 125) translate(-2 6) translate(13 8) translate(0 2)"/>
                            </g>
                        </g>
                    </g>
                </g>
            </g>
        </g>
    </g>
</svg>
