<svg xmlns="http://www.w3.org/2000/svg" width="17" height="12" viewBox="0 0 17 12">
    <g fill="none" fill-rule="evenodd">
        <g fill="#292830" fill-rule="nonzero">
            <g>
                <g>
                    <path d="M11.106 6.05c1.226 0 2.309.81 2.69 1.98l.049.168.096.072h1.481l.098.007c.322.048.568.325.568.66 0 .333-.248.615-.576.66l-.097.005h-1.474l-.097.075-.05.17c-.38 1.17-1.443 1.976-2.688 1.976-1.246 0-2.332-.807-2.714-1.98l-.049-.169-.096-.072H.92L.82 9.595c-.32-.048-.567-.324-.567-.659 0-.334.247-.615.575-.66l.097-.006h7.321l.096-.073.056-.177c.404-1.163 1.484-1.97 2.707-1.97zm0 1.306c-.85 0-1.53.687-1.53 1.555 0 .868.68 1.555 1.53 1.555.768 0 1.399-.577 1.493-1.354l.011-.142v-.11l-.006-.138c-.069-.772-.714-1.366-1.498-1.366zM4.7.33c1.252 0 2.334.791 2.714 1.956l.049.169.096.072h7.889l.098.007c.321.047.568.324.568.658 0 .335-.248.616-.576.66l-.097.007H7.558l-.096.073-.056.178c-.405 1.17-1.469 1.97-2.707 1.97-1.246 0-2.333-.808-2.714-1.98l-.05-.17-.096-.072H.895L.796 3.85C.476 3.803.23 3.526.23 3.191c0-.334.247-.615.575-.66l.098-.006h.937l.096-.072.056-.176C2.397 1.124 3.465.33 4.7.33zm-.001 1.282c-.852 0-1.53.688-1.53 1.556 0 .868.678 1.555 1.53 1.555.85 0 1.53-.687 1.53-1.555 0-.868-.68-1.556-1.53-1.556z" transform="translate(-318 -176) translate(309 164) translate(9.6 12)"/>
                </g>
            </g>
        </g>
    </g>
</svg>
