<svg xmlns="http://www.w3.org/2000/svg" width="17" height="14" viewBox="0 0 17 14">
    <g fill="none" fill-rule="evenodd" opacity=".8">
        <g fill="#FFF" fill-rule="nonzero" stroke="#FFF" stroke-width=".3">
            <g>
                <path d="M.652 11.932c-.086 0-.172-.018-.24-.052-.172-.086-.275-.257-.275-.463V.6C.137.411.24.24.412.137.583.052.789.052.944.171l7.97 5.4c.138.104.223.258.223.429 0 .171-.085.325-.223.429l-7.971 5.4c-.086.068-.189.103-.291.103h0zM1.166 1.56v8.88L7.697 6 1.166 1.56z" transform="translate(-29 -301) translate(30 302)"/>
                <path d="M6.223 11.88c-.171-.086-.275-.257-.275-.463V8.006c0-.292.223-.515.515-.515.291 0 .514.223.514.515v2.434L13.509 6 6.977 1.56v2.915c0 .291-.223.514-.514.514-.292 0-.515-.223-.515-.514V.6c0-.189.104-.36.275-.463.171-.085.377-.085.532.035l7.971 5.4c.137.103.223.257.223.428 0 .172-.086.326-.223.429l-7.972 5.4c-.086.068-.188.103-.291.103-.086 0-.172-.018-.24-.052z" transform="translate(-29 -301) translate(30 302)"/>
            </g>
        </g>
    </g>
</svg>
