<svg xmlns="http://www.w3.org/2000/svg" width="30" height="30" viewBox="0 0 30 30">
    <g fill="none" fill-rule="evenodd">
        <g>
            <g>
                <g transform="translate(-15 -100) translate(15 100)">
                    <rect width="30" height="30" fill="#F7F7F7" rx="4"/>
                    <g fill="#292830" fill-rule="nonzero" stroke="#292830" stroke-width=".3">
                        <path d="M20.49 4.606c-.282-.037-.588-.028-.902.033-.08.014-.153.032-.231.06-.889.152-3.103.416-4.463.17-.074-1.282-.958-2.365-2.19-2.805.11-.199.18-.427.18-.672 0-.764-.625-1.389-1.389-1.389-.763 0-1.388.625-1.388 1.389 0 .245.069.468.18.666-1.246.44-2.143 1.542-2.204 2.843-.417.135-1.898.38-6.575-.319-.143-.023-.291.028-.398.13l-.975.982c-.13.13-.167.32-.107.486.06.172.219.288.399.3.022 0 2.467.223 5.49 2.668.218.227 1.76 1.746 4.08 2.26-.413.842-.932 1.082-1.075 1.133h-.963c-.666 0-1.208.541-1.208 1.24 0 .666.541 1.209 1.208 1.209h6.875c.667 0 1.21-.541 1.21-1.24 0-.666-.542-1.209-1.21-1.209h-.856c-.463-.139-.819-.68-1.032-1.125 1.005-.274 2.486-.99 3.89-2.876.087-.12.19-.25.305-.388l.325-.01c.278-.01.546.06.796.204 1.334.76 2.472.782 3.2.074.036-.037.953-.866.722-2.149-.16-.877-.841-1.55-1.693-1.665h0zm-9.458-3.213c0-.255.208-.463.463-.463s.464.208.464.463c0 .25-.204.454-.454.464h-.023c-.246-.01-.45-.213-.45-.464h0zm.445 1.39h.032c1.228.009 2.237.833 2.427 1.902h-4.89c.186-1.074 1.203-1.897 2.43-1.903h0zm3.64 11.004c0 .153-.126.282-.283.282H7.958c-.157 0-.282-.125-.282-.315 0-.153.125-.282.282-.282h6.875c.157 0 .283.13.283.315h0zm-2.576-1.24h-2.17c.203-.255.402-.574.573-.987.194.019.394.029.597.029.07 0 .135 0 .204-.005.018 0 .11.005.26 0 .107.263.282.624.536.963h0zm4.122-5.26c-.117.056-.204.162-.241.288-.125.153-.237.292-.33.42-2.054 2.75-4.194 2.672-4.333 2.668-3.033.08-5.171-2.143-5.194-2.167-.014-.014-.028-.028-.047-.041-2.162-1.755-4.05-2.45-5.11-2.723l.198-.198c2.843.416 6.148.722 7.139.079h5.319c1.032.37 2.698.315 3.921.194-.416.443-.906.989-1.323 1.48h0zm4.17.463c-.565.55-1.564.11-2.11-.199-.256-.143-.528-.24-.806-.292.523-.588 1.07-1.166 1.385-1.463.097-.092.208-.167.324-.208.01-.004.018-.004.028-.01.037-.014.074-.022.11-.028.219-.041.427-.05.612-.023.449.06.819.44.907.922.129.76-.412 1.27-.45 1.3h0z" transform="matrix(-1 0 0 1 26.5 8)"/>
                    </g>
                </g>
            </g>
        </g>
    </g>
</svg>
