<svg xmlns="http://www.w3.org/2000/svg" width="30" height="30" viewBox="0 0 30 30">
    <g fill="none" fill-rule="evenodd">
        <g>
            <g>
                <g transform="translate(-15 -200) translate(15 200)">
                    <rect width="30" height="30" fill="#F7F7F7" rx="4"/>
                    <g fill="#292830" fill-rule="nonzero">
                        <path d="M4.971.008C3.75.008 2.528.487 1.607 1.45c-1.843 1.928-1.841 5.02 0 6.95l7.036 7.378c.128.136.308.213.496.213s.367-.077.497-.213l7.042-7.371c1.843-1.929 1.843-5.022 0-6.95-1.843-1.929-4.885-1.929-6.728 0l-.807.836-.808-.843C7.414.486 6.193.008 4.971.008zm0 1.343c.853 0 1.711.35 2.379 1.05l1.3 1.364c.129.136.308.213.496.213s.367-.077.497-.213l1.293-1.357c1.334-1.397 3.415-1.397 4.75 0 1.334 1.397 1.334 3.66 0 5.057-2.18 2.282-4.363 4.56-6.543 6.843L2.6 7.458c-1.335-1.399-1.335-3.66 0-5.057.668-.7 1.519-1.05 2.371-1.05z" transform="translate(5.9 7)"/>
                    </g>
                </g>
            </g>
        </g>
    </g>
</svg>
