<svg xmlns="http://www.w3.org/2000/svg" width="40" height="30" viewBox="0 0 40 30">
    <g fill="none" fill-rule="evenodd">
        <g>
            <g>
                <g>
                    <path fill="#292830" fill-rule="nonzero" d="M5.778 0C4.069 0 2.667 1.403 2.667 3.111v20H.889c-.472 0-.886.443-.889.889v1.778c0 1.955 1.6 3.555 3.556 3.555h32.888c1.955 0 3.556-1.6 3.556-3.555V24c0-.465-.424-.889-.889-.889h-1.778v-20c0-1.708-1.402-3.111-3.11-3.111H5.777zm0 1.778h28.444c.754 0 1.334.58 1.334 1.333v20H4.444v-20c0-.753.58-1.333 1.334-1.333zm-4 23.11h36.444v.89c0 1-.778 1.778-1.778 1.778H3.556c-1 0-1.778-.778-1.778-1.778v-.89z" transform="translate(-26 -365) translate(15 337) translate(11 28)"/>
                    <path stroke="#292830" stroke-width="1.8" d="M7 4.4c-.055 0-.1.045-.1.1v16c0 .055.045.1.1.1h26c.055 0 .1-.045.1-.1v-16c0-.055-.045-.1-.1-.1H7z" transform="translate(-26 -365) translate(15 337) translate(11 28)"/>
                </g>
            </g>
        </g>
    </g>
</svg>
