<svg xmlns="http://www.w3.org/2000/svg" width="30" height="31" viewBox="0 0 30 31">
    <g fill="none" fill-rule="evenodd">
        <g>
            <g transform="translate(-15.000000, -544.000000) translate(15.000000, 544.500000)">
                <rect width="30" height="30" fill="#F7F7F7" rx="4"/>
                <g fill="#292830">
                    <path d="M4.926 1.378h.197v2.336c-.202.103-.427.153-.653.148-.253-.004-.5-.077-.715-.21-.099-.086-.208-.16-.325-.218.39-.376.603-.9.585-1.442C4.015.8 3.257 0 2.12 0 1.782-.005 1.38.178.911.547c-.3.237-.352.673-.115.973l.028.033c.227.254.616.278.873.054.148-.13.278-.194.39-.195.367 0 .596.27.596.701 0 .312-.03.824-.568.838-.359 0-.649.29-.649.648v.102c0 .365.295.66.66.66.555 0 .835.25.835.744 0 .406-.204.838-.777.838-.288 0-.56-.133-.816-.399-.23-.238-.608-.246-.847-.016l-.033.035c-.268.303-.24.767.064 1.035l.03.025c.624.494 1.156.741 1.597.74 1.243 0 2.117-.91 2.146-2.226.26.09.541.098.805.023v2.057c0 .385.313.698.699.698.385 0 .698-.313.698-.698V1.378H7.2c.366 0 .663-.297.663-.663 0-.366-.297-.663-.663-.663H4.926c-.366 0-.663.297-.663.663 0 .366.297.663.663.663z" transform="translate(6.000000, 6.000000)"/>
                    <path fill-rule="nonzero" d="M17.773 16.958l-2.388-5.684c-.209-.512-1.042-.512-1.25 0l-2.389 5.684c-.151.341.02.739.36.89.341.152.739-.019.89-.36l.36-.871h2.805l.36.872c.113.265.36.416.625.416.095 0 .17-.019.265-.057.342-.151.513-.549.362-.89zm-3.847-1.705l.834-1.97.833 1.97h-1.667zM14.078 6.953v.057l-.682-.682c-.265-.265-.701-.265-.967 0-.265.265-.265.701 0 .967l1.838 1.837c.132.133.303.21.473.21.19 0 .36-.076.474-.21l1.838-1.837c.265-.265.265-.701 0-.967-.265-.265-.701-.265-.967 0l-.662.682v-.075c0-2.767-2.254-5.021-5.021-5.021-.38 0-.683.303-.683.682 0 .38.304.683.683.683 2.028-.001 3.676 1.647 3.676 3.675zM9.379 15.215h-.853c-2.027 0-3.657-1.648-3.657-3.657v-.398l.683.682c.132.133.303.209.473.209.17 0 .342-.076.474-.209.265-.265.265-.7 0-.967L4.661 9.038c-.246-.247-.7-.247-.966 0l-1.838 1.837c-.265.265-.265.701 0 .967.265.265.7.265.967 0l.682-.682v.398c0 2.767 2.254 5.02 5.02 5.02h.872c.38 0 .683-.303.683-.681-.001-.38-.323-.682-.702-.682z" transform="translate(6.000000, 6.000000)"/>
                </g>
            </g>
        </g>
    </g>
</svg>
