<svg xmlns="http://www.w3.org/2000/svg" width="30" height="30" viewBox="0 0 30 30">
    <g fill="none" fill-rule="evenodd">
        <g>
            <g transform="translate(-15.000000, -354.000000) translate(15.000000, 354.000000)">
                <rect width="30" height="30" fill="#F7F7F7" rx="4"/>
                <g fill="#292830" fill-rule="nonzero" stroke="#F7F7F7" stroke-width=".2">
                    <path d="M14.943.277c.337-.337.871-.337 1.207 0 3.662 3.661 3.662 9.639-.02 13.32-.158.18-.375.258-.593.258-.218 0-.436-.099-.594-.257-.337-.338-.337-.872 0-1.208 3.008-3.01 3.008-7.898 0-10.906-.337-.337-.337-.871 0-1.207zM2.85.277c.337-.337.871-.337 1.207 0 .337.337.337.871 0 1.207C1.05 4.492 1.05 9.381 4.037 12.37c.336.337.336.871 0 1.208-.158.178-.376.257-.594.257-.218 0-.435-.099-.593-.257-3.662-3.662-3.662-9.639 0-13.3zm9.262 2.81c.337-.335.872-.335 1.208 0 2.118 2.119 2.138 5.562-.02 7.681-.159.179-.376.258-.594.258-.218 0-.435-.1-.594-.258-.336-.337-.336-.871 0-1.208 1.465-1.445 1.445-3.82 0-5.264-.336-.338-.336-.872 0-1.208zm-6.452 0c.337-.336.871-.336 1.208 0 .336.337.336.871 0 1.208-1.445 1.445-1.445 3.82-.02 5.264.336.337.336.871 0 1.207-.16.179-.376.258-.594.258-.218 0-.436-.1-.594-.258-2.118-2.117-2.118-5.562 0-7.679zM9.5 5.482c.798 0 1.445.647 1.445 1.445S10.298 8.372 9.5 8.372s-1.445-.647-1.445-1.445.647-1.445 1.445-1.445z" transform="translate(5.500000, 8.000000)"/>
                </g>
            </g>
        </g>
    </g>
</svg>
