<svg xmlns="http://www.w3.org/2000/svg" width="14" height="16" viewBox="0 0 14 16">
    <g fill="none" fill-rule="evenodd" opacity=".4">
        <g fill="#292830" fill-rule="nonzero">
            <g>
                <g>
                    <path d="M2.492 4.873v-.856c0-2.21 1.954-4.001 4.365-4.001 2.41 0 4.365 1.793 4.365 4.001v.856h.886c.826 0 1.495.712 1.495 1.586v7.94c0 .875-.67 1.585-1.495 1.585H1.606c-.826 0-1.495-.712-1.495-1.586V6.46c0-.876.67-1.586 1.495-1.586h.886zM1.699 6.46v7.936h10.317V6.46H1.699zm7.936-1.588v-.856c0-1.3-1.215-2.414-2.778-2.414-1.564 0-2.777 1.113-2.777 2.414v.856h5.555zm-3.572 4.59c0-.438.353-.793.794-.793.438 0 .794.352.794.794v2.381c0 .439-.353.793-.794.793-.438 0-.794-.351-.794-.793V9.464z" transform="translate(-310 -249) translate(15 166) translate(295 83)"/>
                </g>
            </g>
        </g>
    </g>
</svg>
