<svg xmlns="http://www.w3.org/2000/svg" width="20" height="24" viewBox="0 0 20 24">
    <g fill="none" fill-rule="evenodd">
        <g fill="#292830" fill-rule="nonzero" stroke="#FFF" stroke-width=".733">
            <g>
                <g>
                    <path d="M9.62 15.45c.204.206.46.307.716.307.255 0 .511-.102.716-.306l3.735-3.736c.41-.41.41-1.049 0-1.458L11.051 6.55c-.41-.41-1.049-.41-1.458 0-.41.41-.41 1.05 0 1.458l1.996 1.996H5.372c-.562 0-1.023.46-1.023 1.023 0 .562.46 1.023 1.023 1.023h6.217l-1.996 1.996c-.383.357-.383 1.022.026 1.406h0z" transform="translate(-317 -491) translate(15 492) translate(303)"/>
                    <path d="M17.395 7.674c.563 0 1.024-.46 1.024-1.023V3.683C18.419 1.637 16.782 0 14.735 0H3.683C1.637 0 0 1.637 0 3.683v14.659C0 20.363 1.637 22 3.683 22H14.76c2.022 0 3.659-1.637 3.659-3.683v-2.968c0-.563-.46-1.023-1.023-1.023s-1.024.46-1.024 1.023v2.968c0 .895-.741 1.637-1.636 1.637H3.684c-.896 0-1.637-.742-1.637-1.637V3.683c0-.895.741-1.636 1.637-1.636H14.76c.895 0 1.636.741 1.636 1.636l.001 2.968c-.026.563.435 1.024.998 1.024h0z" transform="translate(-317 -491) translate(15 492) translate(303)"/>
                </g>
            </g>
        </g>
    </g>
</svg>
