<svg xmlns="http://www.w3.org/2000/svg" width="20" height="26" viewBox="0 0 20 26">
    <g fill="none" fill-rule="evenodd">
        <g stroke="#292830">
            <g>
                <g>
                    <path stroke-width="1.3" d="M2.6.65C1.523.65.65 1.523.65 2.6v16.64c0 .72.397 1.382 1.032 1.72l7.15 3.814c.574.306 1.262.306 1.836 0l7.15-3.813c.635-.34 1.032-1 1.032-1.721V2.6c0-1.077-.873-1.95-1.95-1.95H2.6z" transform="translate(-317 -304) translate(15 304) translate(302)"/>
                    <g fill="#292830" fill-rule="nonzero" stroke-width=".3">
                        <path d="M.076 5.927v.641c0 .173.069.338.19.46L4.51 11.27c.208.208.545.208.752 0 .208-.207.208-.544 0-.752L1.14 6.397h0v-.056h2.235c.233 0 .447-.124.563-.325L5.48 3.347h1.713c.294 0 .532-.238.532-.531 0-.294-.238-.532-.532-.532H.728c-.294 0-.532.238-.532.532 0 .293.238.531.532.531H4.25l-.927 1.605c-.116.202-.33.325-.563.325H.726c-.359 0-.65.291-.65.65 0 0 0 0 0 0zM.728.053h6.464c.294 0 .532.238.532.531 0 .294-.238.532-.532.532H.728C.434 1.116.196.878.196.584c0-.293.238-.531.532-.531z" transform="translate(-317 -304) translate(15 304) translate(302) translate(5.85 6.5)"/>
                    </g>
                </g>
            </g>
        </g>
    </g>
</svg>
