<svg xmlns="http://www.w3.org/2000/svg" width="30" height="30" viewBox="0 0 30 30">
    <g fill="none" fill-rule="evenodd">
        <g>
            <g>
                <g transform="translate(-15 -270) translate(15 270)">
                    <rect width="30" height="30" fill="#F7F7F7" rx="4"/>
                    <g fill="#292830" fill-rule="nonzero">
                        <path d="M.117 9.12v.985c0 .265.106.52.293.707l6.529 6.529c.32.32.837.32 1.157 0 .32-.32.32-.838 0-1.157L1.754 9.842v-.086h3.439c.357 0 .687-.191.866-.5l2.37-4.106h2.636c.452 0 .818-.366.818-.818 0-.452-.366-.818-.818-.818H1.12c-.452 0-.818.366-.818.818 0 .452.366.818.818.818h5.42L5.113 7.62c-.179.309-.509.5-.866.5h-3.13c-.553 0-1 .447-1 1zM1.12.081h9.945c.451 0 .818.366.818.818 0 .452-.367.818-.818.818H1.12C.668 1.717.3 1.351.3.9c0-.452.367-.818.819-.818z" transform="translate(9 6)"/>
                    </g>
                </g>
            </g>
        </g>
    </g>
</svg>
