<svg xmlns="http://www.w3.org/2000/svg" width="6" height="10" viewBox="0 0 6 10">
    <g fill="none" fill-rule="evenodd">
        <g fill="#FFF" fill-rule="nonzero" stroke="#FFF" stroke-width=".5">
            <g>
                <path d="M4.226.141c-.093.014-.178.056-.245.12L.286 3.809c-.093.08-.15.193-.156.315-.007.122.037.241.12.33.085.088.202.138.324.138s.238-.051.322-.14l3.39-3.257 3.39 3.256c.083.09.2.14.322.14.122.001.239-.049.323-.137.084-.089.128-.208.12-.33-.006-.122-.062-.236-.156-.315L4.591.262C4.494.17 4.359.125 4.226.142h0z" transform="translate(-317 -653) rotate(90 -166 488)"/>
            </g>
        </g>
    </g>
</svg>
