<svg xmlns="http://www.w3.org/2000/svg" width="18" height="18" viewBox="0 0 18 18">
    <g fill="none" fill-rule="evenodd">
        <g fill="#292830" fill-rule="nonzero">
            <g>
                <path d="M17.333 12.833c0 1.105-.897 2-2.004 2H2.004c-1.107 0-2.004-.894-2.004-2 0-1.104.896-2 2.001-2l-.001-4C2 3.15 4.984.167 8.667.167c3.682 0 6.666 2.984 6.666 6.666v4c1.102 0 2 .896 2 2zm-2.001-.666c-.736 0-1.332-.595-1.332-1.334v-4C14 3.888 11.613 1.5 8.667 1.5c-2.947 0-5.334 2.387-5.334 5.333v4c0 .736-.597 1.334-1.332 1.334-.368 0-.668.3-.668.666 0 .369.3.667.67.667H15.33c.37 0 .67-.3.67-.667 0-.367-.3-.666-.668-.666zm-9.665 2.666H7c0 .92.746 1.667 1.667 1.667.92 0 1.666-.746 1.666-1.667h1.334c0 1.657-1.344 3-3 3-1.657 0-3-1.343-3-3z" transform="translate(-286 -22) translate(286 22)"/>
            </g>
        </g>
    </g>
</svg>
