<svg xmlns="http://www.w3.org/2000/svg" width="30" height="30" viewBox="0 0 30 30">
    <g fill="none" fill-rule="evenodd">
        <g fill="#FFF" fill-rule="nonzero">
            <g>
                <g>
                    <g>
                        <path d="M15 .04c-3.968 0-7.773 1.576-10.578 4.382C1.616 7.227.04 11.032.04 15c0 3.968 1.576 7.773 4.382 10.578C7.227 28.384 11.032 29.96 15 29.96c3.968 0 7.773-1.576 10.578-4.382 2.806-2.805 4.382-6.61 4.382-10.578-.005-3.966-1.582-7.77-4.387-10.573C22.77 1.622 18.966.045 15 .04zm0 27.925c-3.438 0-6.737-1.366-9.168-3.797C3.4 21.738 2.035 18.438 2.035 15c0-3.439 1.366-6.737 3.797-9.168C8.262 3.4 11.562 2.035 15 2.035c3.439 0 6.737 1.366 9.168 3.797 2.431 2.43 3.797 5.73 3.797 9.168-.003 3.437-1.37 6.733-3.802 9.163-2.43 2.431-5.726 3.799-9.163 3.802z" transform="translate(-130 -448) translate(15 350) translate(0 33) translate(115 65)"/>
                        <path d="M11.54 7.174c-.309-.194-.695-.204-1.013-.028-.317.176-.514.51-.514.873v13.963c0 .362.197.696.514.872.318.176.704.166 1.012-.027l11.17-6.982c.293-.18.473-.502.473-.847 0-.346-.18-.666-.473-.848L11.54 7.174z" transform="translate(-130 -448) translate(15 350) translate(0 33) translate(115 65)"/>
                    </g>
                </g>
            </g>
        </g>
    </g>
</svg>
