<svg xmlns="http://www.w3.org/2000/svg" width="23" height="27" viewBox="0 0 23 27">
    <g fill="none" fill-rule="evenodd">
        <g>
            <g>
                <g transform="translate(-317 -428) translate(15 429) translate(303)">
                    <path fill="#292830" fill-rule="nonzero" stroke="#FFF" stroke-width=".2" d="M4.5 16.5L10.5 16.5 10.5 18 4.5 18z"/>
                    <path fill="#292830" fill-rule="nonzero" stroke="#FFF" stroke-width=".2" d="M17.49 5.52L12.466.495C12.14.178 11.704 0 11.25 0h-9C1.008 0 0 1.008 0 2.25v19.5C0 22.992 1.008 24 2.25 24h13.5c1.242 0 2.25-1.008 2.25-2.25v-15c-.001-.461-.184-.902-.51-1.23h0zM12 2.145L15.855 6h-2.61C12.555 5.991 12 5.43 12 4.74V2.145zm4.5 19.605c0 .415-.335.75-.75.75H2.25c-.415 0-.75-.335-.75-.75V2.25c0-.415.335-.75.75-.75h8.25v3.24c-.004.731.284 1.433.798 1.951.516.517 1.216.809 1.947.809H16.5v14.25z"/>
                    <circle cx="17" cy="21" r="5" fill="#FFF"/>
                    <path fill="#FFF" d="M16.5 18L19.5 19 18.5 23 17.5 25 16 24.5 15 23.5 14 21.5 13.5 19.5z"/>
                    <path fill="#292830" fill-rule="nonzero" stroke="#FFF" stroke-linejoin="round" stroke-width=".5" d="M19.716 18.472l-2.787-1.389c-.223-.11-.485-.11-.707 0l-2.779 1.39c-.27.131-.442.406-.443.707 0 6.29 3.41 6.366 3.58 6.366.17 0 3.58-.068 3.58-6.366-.002-.3-.175-.576-.444-.708h0zm-3.136 5.48c-.665 0-1.892-.997-2.003-4.26l2.003-1.015 1.977.989c-.11 3.324-1.33 4.252-1.977 4.287h0z"/>
                    <path fill="#292830" fill-rule="nonzero" stroke="#FFF" stroke-width=".2" d="M4.5 10.5L13.5 10.5 13.5 12 4.5 12zM4.5 13.5L13.5 13.5 13.5 15 4.5 15z"/>
                </g>
            </g>
        </g>
    </g>
</svg>
