<svg xmlns="http://www.w3.org/2000/svg" width="40" height="40" viewBox="0 0 40 40">
    <g fill="none" fill-rule="evenodd">
        <g fill="#292830" fill-rule="nonzero">
            <g>
                <path d="M30.935 3.25c-5.67-3.697-12.824-4.278-19.02-1.547C5.724 4.437 1.336 10.115.258 16.791c-1.081 6.677 1.293 13.446 6.31 17.987.084.119.193.217.316.291C10.512 38.25 15.175 40 20 40c4.825 0 9.488-1.752 13.117-4.93.123-.075.232-.173.316-.292 4.178-3.771 6.565-9.131 6.567-14.756.014-6.763-3.396-13.074-9.065-16.772z" opacity=".095" transform="translate(-15 -20) translate(15 20)"/>
                <g>
                    <path d="M16.241 1.706C13.264-.234 9.508-.54 6.256.894 3.005 2.33.7 5.31.135 8.815c-.568 3.506.679 7.06 3.312 9.443.045.063.102.114.167.153C5.519 20.081 7.967 21 10.5 21c2.533 0 4.981-.92 6.886-2.589.065-.039.122-.09.166-.153C19.746 16.278 21 13.465 21 10.512c.007-3.55-1.783-6.864-4.759-8.806zM5.209 2.736C7.783.985 11.06.62 13.955 1.764c2.896 1.144 5.036 3.648 5.714 6.685.678 3.036-.194 6.211-2.329 8.475-.588-1.183-2.243-3.057-6.84-3.057-4.597 0-6.252 1.877-6.84 3.057-1.64-1.732-2.554-4.028-2.555-6.412C1.1 7.4 2.635 4.488 5.21 2.736zm8.476 8.334c.845-.843 1.32-1.988 1.32-3.182 0-1.193-.475-2.338-1.32-3.181-.844-.844-1.99-1.319-3.185-1.319s-2.341.475-3.185 1.319c-.845.843-1.32 1.988-1.32 3.181.002 1.194.477 2.337 1.321 3.18.845.844 1.99 1.318 3.184 1.32 1.195 0 2.341-.474 3.185-1.318z" transform="translate(-15 -20) translate(15 20) translate(9.5 9.5)"/>
                </g>
            </g>
        </g>
    </g>
</svg>
