<svg xmlns="http://www.w3.org/2000/svg" width="40" height="40" viewBox="0 0 40 40">
    <g fill="none" fill-rule="evenodd">
        <g fill-rule="nonzero">
            <g>
                <path fill="#FFF" d="M30.935 3.25c-5.67-3.697-12.824-4.278-19.02-1.547C5.724 4.437 1.336 10.115.258 16.791c-1.081 6.677 1.293 13.446 6.31 17.987.084.119.193.217.316.291C10.512 38.25 15.175 40 20 40c4.825 0 9.488-1.752 13.117-4.93.123-.075.232-.173.316-.292 4.178-3.771 6.565-9.131 6.567-14.756.014-6.763-3.396-13.074-9.065-16.772z" transform="translate(-15 -86) translate(15 86)"/>
                <g fill="#6356FF">
                    <path d="M18.561 1.95C15.16-.268 10.866-.617 7.15 1.022 3.434 2.662.802 6.069.154 10.075-.495 14.08.93 18.142 3.94 20.867c.05.071.116.13.19.174C6.307 22.95 9.105 24 12 24c2.895 0 5.693-1.051 7.87-2.959.074-.044.14-.103.19-.174 2.506-2.263 3.939-5.479 3.94-8.854.009-4.057-2.038-7.844-5.439-10.063zM5.953 3.126c2.942-2 6.686-2.417 9.996-1.11 3.31 1.308 5.755 4.169 6.53 7.64.775 3.47-.222 7.099-2.662 9.686-.672-1.353-2.563-3.494-7.817-3.494s-7.145 2.145-7.817 3.494c-1.874-1.98-2.918-4.603-2.92-7.329-.007-3.556 1.75-6.884 4.69-8.887zm9.687 9.525c.966-.963 1.509-2.272 1.509-3.636 0-1.364-.543-2.672-1.509-3.636-.965-.965-2.275-1.507-3.64-1.507-1.365 0-2.676.542-3.64 1.507-.966.964-1.509 2.272-1.509 3.636.003 1.364.546 2.67 1.51 3.635.966.964 2.274 1.506 3.639 1.508 1.366 0 2.676-.542 3.64-1.507z" transform="translate(-15 -86) translate(15 86) translate(8 8)"/>
                </g>
            </g>
        </g>
    </g>
</svg>
