<svg xmlns="http://www.w3.org/2000/svg" width="30" height="30" viewBox="0 0 30 30">
    <g fill="none" fill-rule="evenodd">
        <g>
            <g>
                <g transform="translate(-15 -440) translate(15 440)">
                    <rect width="30" height="30" fill="#F7F7F7" rx="4"/>
                    <g fill="#292830" fill-rule="nonzero" stroke="#F7F7F7">
                        <path stroke-width="1.5" d="M11.277 5.559c0-1.986-1.06-3.822-2.78-4.815-1.72-.992-3.839-.992-5.559 0-1.72.993-2.78 2.829-2.78 4.815 0 .877.712 1.588 1.59 1.588.876 0 1.587-.711 1.587-1.588 0-.964.581-1.832 1.47-2.202.891-.368 1.916-.164 2.597.517.682.681.886 1.706.516 2.596-.368.89-1.237 1.471-2.2 1.471-.877 0-1.588.711-1.588 1.588v3.574c0 .877.71 1.588 1.588 1.588.877 0 1.588-.711 1.588-1.588v-2.22c1.146-.343 2.151-1.046 2.867-2.005.714-.96 1.101-2.123 1.104-3.32h0z" transform="translate(9 6)"/>
                        <path stroke-width=".8" d="M7.306 16.412c0 .877-.711 1.588-1.588 1.588-.877 0-1.588-.711-1.588-1.588 0-.878.71-1.589 1.588-1.589.877 0 1.588.711 1.588 1.589" transform="translate(9 6)"/>
                    </g>
                </g>
            </g>
        </g>
    </g>
</svg>
