<svg xmlns="http://www.w3.org/2000/svg" width="11" height="16" viewBox="0 0 11 16">
    <g fill="none" fill-rule="evenodd">
        <g fill="#292830" fill-rule="nonzero" stroke="#292830" stroke-width=".3">
            <g>
                <g>
                    <path d="M4.923 0C3.225 0 1.846 1.379 1.846 3.077V7.59c0 1.698 1.38 3.077 3.077 3.077C6.621 10.667 8 9.287 8 7.59V3.077C8 1.379 6.621 0 4.923 0zm0 .82c1.257 0 2.256 1 2.256 2.257V7.59c0 1.257-.999 2.256-2.256 2.256-1.257 0-2.256-.999-2.256-2.256V3.077C2.667 1.82 3.666.82 4.923.82zM.417 5.129c-.22-.003-.42.198-.417.417v2.051c0 2.584 1.984 4.697 4.513 4.904v1.449H2.872c-.227 0-.41.183-.41.41 0 .227.183.41.41.41h4.102c.227 0 .41-.183.41-.41 0-.227-.183-.41-.41-.41h-1.64v-1.45c2.528-.207 4.512-2.32 4.512-4.903V5.545c.003-.216-.193-.416-.41-.416-.217 0-.414.2-.41.416v2.051c0 2.28-1.823 4.103-4.103 4.103S.82 9.876.82 7.596V5.545C.824 5.33.631 5.13.417 5.128h0z" transform="translate(-319 -72) translate(15 62) translate(305 11)"/>
                </g>
            </g>
        </g>
    </g>
</svg>
