<svg xmlns="http://www.w3.org/2000/svg" width="30" height="30" viewBox="0 0 30 30">
    <g fill="none" fill-rule="evenodd">
        <g>
            <g>
                <g transform="translate(-15 -390) translate(15 390)">
                    <rect width="30" height="30" fill="#F7F7F7" rx="4"/>
                    <g fill="#292830" fill-rule="nonzero">
                        <path d="M4.857 10.5C6.793 6.813 9.38 3.336 12.434.72c.39-.334.977-.289 1.31.101.334.39.289.977-.101 1.31C10.35 4.95 7.604 8.89 5.71 12.966c-.334.72-1.363.715-1.69-.011-.97-2.156-2.155-3.79-3.603-4.84-.416-.3-.51-.881-.209-1.297.301-.415.882-.51 1.298-.208 1.317.954 2.418 2.263 3.351 3.89z" transform="translate(8 7)"/>
                    </g>
                </g>
            </g>
        </g>
    </g>
</svg>
