<svg xmlns="http://www.w3.org/2000/svg" width="16" height="16" viewBox="0 0 16 16">
    <g fill="none" fill-rule="evenodd">
        <g fill="#F1002E" fill-rule="nonzero" stroke="#FFF" stroke-width=".3">
            <g>
                <g>
                    <g>
                        <path d="M14.119 12.995l-2.564-2.546c2.002-2.564 1.791-6.216-.51-8.517C9.834.72 8.218.052 6.498.052 4.776.053 3.16.72 1.95 1.933.738 3.143.07 4.759.07 6.48c0 1.72.668 3.336 1.88 4.548 1.211 1.211 2.827 1.878 4.548 1.878 1.422 0 2.827-.474 3.95-1.37l2.547 2.583c.158.157.351.228.562.228.21 0 .404-.088.562-.228.316-.299.316-.808 0-1.124h0zM11.345 6.48c0 1.299-.51 2.511-1.423 3.424-.913.913-2.142 1.423-3.425 1.423-1.282 0-2.51-.51-3.424-1.423C2.16 8.991 1.65 7.762 1.65 6.48c0-1.3.51-2.512 1.423-3.425.913-.913 2.142-1.422 3.424-1.422 1.3 0 2.512.509 3.425 1.422.913.914 1.423 2.125 1.423 3.425z" transform="translate(-29 -72) translate(15 62) translate(15 11)"/>
                    </g>
                </g>
            </g>
        </g>
    </g>
</svg>
