<?xml version="1.0" encoding="UTF-8"?>
<svg width="22px" height="21px" viewBox="0 0 22 21" version="1.1" xmlns="http://www.w3.org/2000/svg" xmlns:xlink="http://www.w3.org/1999/xlink">
    <!-- Generator: Sketch 63.1 (92452) - https://sketch.com -->
    <title>Shape</title>
    <desc>Created with Sketch.</desc>
    <g id="Page-1" stroke="none" stroke-width="1" fill="none" fill-rule="evenodd" opacity="0.400000006">
        <g id="My-course_Video-page-Copy-2" transform="translate(-48.000000, -497.000000)" fill="#292830" fill-rule="nonzero" stroke="#FFFFFF" stroke-width="0.2">
            <g id="Group-11" transform="translate(15.000000, 498.000000)">
                <g id="np_star_750828_000000-copy-5" transform="translate(33.600000, 0.000000)">
                    <path d="M16.553519,19.1896789 C16.7616446,19.172804 16.952903,19.0696789 17.078519,18.9065509 C17.2041446,18.7434253 17.251019,18.5362309 17.2088318,18.3374869 L15.9188319,12.2323673 L20.6504316,8.02948752 L20.6504316,8.02855008 C20.862306,7.84105009 20.9419836,7.54948611 20.85387,7.28416613 C20.7648084,7.01978214 20.525742,6.82948615 20.240742,6.79761415 L13.8723424,6.1019982 L11.2258625,0.426478535 C11.1086753,0.17147855 10.8480546,0.0083505595 10.5602466,0.0083505595 C10.2724386,0.0083505595 10.0117986,0.17147615 9.89463061,0.426478535 L7.24815077,6.1019982 L0.879751148,6.79761415 C0.594751165,6.82948855 0.355687179,7.01980134 0.266623184,7.28416613 C0.178497589,7.54948611 0.258185745,7.84103809 0.470061572,8.02855008 L5.20166129,12.2314298 L3.91166137,18.3365495 L3.91166137,18.3374869 C3.85447417,18.6102949 3.96603576,18.8906149 4.19759735,19.0546789 C4.42915894,19.2178045 4.73853332,19.2346789 4.9879173,19.0968661 L10.560477,16.0191062 L16.1330366,19.0968661 C16.2605366,19.1681173 16.4077166,19.2009277 16.5539726,19.1896789 L16.553519,19.1896789 Z M15.4529031,17.089679 L10.9209833,14.5838391 C10.6969218,14.4600903 10.4231754,14.4600903 10.1991114,14.5838391 L5.66719166,17.089679 L6.7153196,12.1228793 C6.7668812,11.8772633 6.6815708,11.6231993 6.49125801,11.4544313 L2.63901824,8.03539152 L7.82253793,7.46913555 L7.82253793,7.47007299 C8.07940992,7.4419474 8.30160191,7.28538581 8.4084739,7.05756102 L10.5600258,2.44236129 L12.7115776,7.05756102 C12.818452,7.28537381 13.0406416,7.441945 13.2975136,7.47007299 L18.4810333,8.03632896 L14.6287935,11.4553688 L14.6287935,11.4544311 C14.4384807,11.6231823 14.3531775,11.8772391 14.4047319,12.122879 L15.4529031,17.089679 Z" id="Shape"></path>
                </g>
            </g>
        </g>
    </g>
</svg>