<?xml version="1.0" encoding="UTF-8"?>
<svg width="22px" height="20px" viewBox="0 0 22 20" version="1.1" xmlns="http://www.w3.org/2000/svg" xmlns:xlink="http://www.w3.org/1999/xlink">
    <!-- Generator: Sketch 63.1 (92452) - https://sketch.com -->
    <title>Shape</title>
    <desc>Created with Sketch.</desc>
    <g id="Page-1" stroke="none" stroke-width="1" fill="none" fill-rule="evenodd">
        <g id="My-course_Video-page-Copy-2" transform="translate(-15.000000, -498.000000)" fill="#5446FF" fill-rule="nonzero">
            <g id="Group-11" transform="translate(15.000000, 498.000000)">
                <g id="np_star_750828_000000-copy-2">
                    <path d="M17.790125,19.694325 C17.920985,19.5244025 17.9698125,19.308575 17.9258675,19.10155 L16.5821175,12.74205 L21.5108675,8.36405 C21.73157,8.167761 21.8145675,7.8640485 21.7227825,7.5876735 C21.63001,7.3122735 21.3809825,7.1140485 21.0841075,7.0808485 L14.4503575,6.3562485 L11.6936075,0.4442485 C11.5715375,0.1786235 11.3000575,0.0086985 11.0002575,0.0086985 C10.7004575,0.0086985 10.4289575,0.178621 10.3069075,0.4442485 L7.5501575,6.3562485 L0.9164075,7.0808485 C0.6195325,7.114051 0.3705075,7.3122935 0.2777325,7.5876735 C0.185935,7.8640485 0.2689435,8.1677485 0.4896475,8.3630735 L5.4183975,12.7410735 L4.0746475,19.1005735 C4.0150775,19.385725 4.1312875,19.677725 4.3724975,19.848625 C4.6137075,20.0185475 4.9359725,20.036125 5.1957475,19.89257 L11.0004975,16.68657 L16.8052475,19.89257 C16.93806,19.96679 17.0913725,20.0009675 17.2437225,19.98925 C17.4600475,19.971672 17.659275,19.86425 17.790125,19.694325 Z" id="Shape"></path>
                </g>
            </g>
        </g>
    </g>
</svg>