<svg xmlns="http://www.w3.org/2000/svg" width="30" height="30" viewBox="0 0 30 30">
    <g fill="none" fill-rule="evenodd">
        <g>
            <g>
                <g transform="translate(-15 -490) translate(15 490)">
                    <rect width="30" height="30" fill="#F7F7F7" rx="4"/>
                    <g fill="#292830" fill-rule="nonzero">
                        <path d="M13.795 15.991c.173-.014.332-.1.437-.236.105-.135.144-.308.109-.474l-1.075-5.087 3.943-3.503c.176-.157.243-.4.17-.62-.075-.221-.274-.38-.512-.406l-5.307-.58L9.355.355C9.257.143 9.04.007 8.8.007c-.24 0-.457.136-.554.348L6.04 5.085l-5.307.58c-.237.026-.437.185-.51.405-.074.221-.008.464.169.62l3.943 3.503L3.26 15.28v.001c-.048.228.045.461.238.598.193.136.45.15.659.035L8.8 13.35l4.644 2.565c.106.06.23.087.351.077zm-.918-1.75l-3.776-2.088c-.187-.103-.415-.103-.602 0l-3.776 2.088.873-4.139c.043-.204-.028-.416-.187-.557L2.2 6.696l4.32-.472v.001c.214-.023.399-.154.488-.344L8.8 2.035l1.793 3.846c.089.19.274.32.488.344l4.32.472-3.21 2.85v-.002c-.159.141-.23.353-.187.557l.873 4.14z" transform="translate(6 7)"/>
                    </g>
                </g>
            </g>
        </g>
    </g>
</svg>
