<svg xmlns="http://www.w3.org/2000/svg" width="43" height="39" viewBox="0 0 43 39">
    <g fill="none" fill-rule="evenodd">
        <g fill="#292830" fill-rule="nonzero" stroke="#FFF" stroke-width=".25">
            <g>
                <g>
                    <path d="M40.292 7.867L20.818.077c-.237-.096-.504-.096-.741 0L.603 7.868c-.358.153-.591.506-.591.896s.233.744.591.896l5.24 2.103v8.685c-.003.327.16.634.427.818 4.28 2.596 9.174 3.996 14.178 4.05 2.985-.018 5.946-.532 8.763-1.519v5.59c-1.164.412-1.944 1.511-1.948 2.745v3.895c0 .259.103.506.286.688.182.183.43.286.688.286h3.895c.258 0 .506-.103.688-.286.183-.182.286-.43.286-.688v-3.895c-.004-1.234-.784-2.333-1.948-2.746v-6.329c1.204-.496 2.364-1.095 3.467-1.791.268-.185.43-.49.428-.818v-8.685l5.24-2.103c.357-.153.59-.506.59-.896s-.233-.744-.59-.896h-.001zM20.447 23.368c-4.444-.068-8.799-1.26-12.658-3.466v-7.36l12.287 4.906c.236.105.506.105.742 0L29.21 14.1v7.634c-2.803 1.052-5.77 1.607-8.763 1.636h0zm10.71 11.685h-1.946v-2.921c0-.539.435-.974.973-.974s.974.435.974.974v2.92zm1.948-15.151c-.409.234-1.07.602-1.947 1.011V13.32l1.947-.78v7.362zm.584-9.7l-3.505 1.402-9.366-3.737c-.243-.129-.528-.148-.787-.055-.259.092-.466.29-.57.544-.105.253-.097.54.02.787.116.25.333.436.596.516l7.479 2.999-7.109 2.843-13.241-5.296-3.604-1.442 16.845-6.738 16.846 6.738-3.604 1.44z" transform="translate(-194 -364) translate(185 337) translate(10 28)"/>
                </g>
            </g>
        </g>
    </g>
</svg>
