<svg xmlns="http://www.w3.org/2000/svg" width="20" height="26" viewBox="0 0 20 26">
    <g fill="none" fill-rule="evenodd">
        <g fill="#292830" fill-rule="nonzero" stroke="#FFF" stroke-width=".2">
            <g>
                <g>
                    <path d="M4.5 16.5L10.5 16.5 10.5 18 4.5 18z" transform="translate(-317 -366) translate(15 367) translate(303)"/>
                    <path d="M17.49 5.52L12.466.495C12.14.178 11.704 0 11.25 0h-9C1.008 0 0 1.008 0 2.25v19.5C0 22.992 1.008 24 2.25 24h13.5c1.242 0 2.25-1.008 2.25-2.25v-15c-.001-.461-.184-.902-.51-1.23h0zM12 2.145L15.855 6h-2.61C12.555 5.991 12 5.43 12 4.74V2.145zm4.5 19.605c0 .415-.335.75-.75.75H2.25c-.415 0-.75-.335-.75-.75V2.25c0-.415.335-.75.75-.75h8.25v3.24c-.004.731.284 1.433.798 1.951.516.517 1.216.809 1.947.809H16.5v14.25z" transform="translate(-317 -366) translate(15 367) translate(303)"/>
                    <path d="M4.5 10.5L13.5 10.5 13.5 12 4.5 12zM4.5 13.5L13.5 13.5 13.5 15 4.5 15z" transform="translate(-317 -366) translate(15 367) translate(303)"/>
                </g>
            </g>
        </g>
    </g>
</svg>
