<svg xmlns="http://www.w3.org/2000/svg" width="11" height="13" viewBox="0 0 11 13">
    <g fill="none" fill-rule="evenodd">
        <g>
            <g>
                <g>
                    <g transform="translate(-152.000000, -750.000000) translate(15.000000, 750.000000) translate(137.000000, 0.000000)">
                        <path fill="#292830" fill-rule="nonzero" d="M2.25 8.25L5.25 8.25 5.25 9 2.25 9z"/>
                        <path fill="#292830" fill-rule="nonzero" d="M8.745 2.76L6.233.248C6.07.088 5.853 0 5.625 0h-4.5C.505 0 0 .504 0 1.125v9.75C0 11.496.504 12 1.125 12h6.75C8.496 12 9 11.496 9 10.875v-7.5c0-.23-.092-.451-.255-.615zM6 1.072L7.928 3H6.623C6.278 2.996 6 2.715 6 2.37V1.072zm2.25 9.803c0 .207-.168.375-.375.375h-6.75c-.207 0-.375-.168-.375-.375v-9.75C.75.918.918.75 1.125.75H5.25v1.62c-.002.366.142.716.4.976.257.258.607.404.973.404H8.25v7.125z"/>
                        <circle cx="8.5" cy="10.5" r="2.5" fill="#FFF"/>
                        <path fill="#FFF" d="M8.25 9L9.75 9.5 9.25 11.5 8.75 12.5 8 12.25 7.5 11.75 7 10.75 6.75 9.75z"/>
                        <path fill="#292830" fill-rule="nonzero" d="M9.858 9.236l-1.393-.694c-.112-.056-.243-.056-.354 0l-1.39.694c-.134.066-.22.204-.221.354 0 3.145 1.705 3.183 1.79 3.183.085 0 1.79-.034 1.79-3.183-.001-.15-.087-.288-.222-.354zm-1.568 2.74c-.333 0-.946-.498-1.002-2.13l1.002-.508.989.495c-.056 1.662-.665 2.126-.99 2.143zM2.25 5.25L6.75 5.25 6.75 6 2.25 6zM2.25 6.75L6.75 6.75 6.75 7.5 2.25 7.5z"/>
                    </g>
                </g>
            </g>
        </g>
    </g>
</svg>
