<svg xmlns="http://www.w3.org/2000/svg" width="9" height="12" viewBox="0 0 9 12">
    <g fill="none" fill-rule="evenodd">
        <g fill="#292830" fill-rule="nonzero">
            <g>
                <g>
                    <g>
                        <path d="M2.25 8.25L5.25 8.25 5.25 9 2.25 9z" transform="translate(-15.000000, -750.000000) translate(15.000000, 750.000000)"/>
                        <path d="M8.745 2.76L6.233.248C6.07.088 5.853 0 5.625 0h-4.5C.504 0 0 .504 0 1.125v9.75C0 11.496.504 12 1.125 12h6.75C8.496 12 9 11.496 9 10.875v-7.5c0-.23-.092-.451-.255-.615zM6 1.072L7.928 3H6.622C6.277 2.995 6 2.715 6 2.37V1.072zm2.25 9.803c0 .207-.168.375-.375.375h-6.75c-.207 0-.375-.168-.375-.375v-9.75C.75.918.918.75 1.125.75H5.25v1.62c-.002.365.142.716.399.976.258.258.608.404.973.404H8.25v7.125z" transform="translate(-15.000000, -750.000000) translate(15.000000, 750.000000)"/>
                        <path d="M2.25 5.25L6.75 5.25 6.75 6 2.25 6zM2.25 6.75L6.75 6.75 6.75 7.5 2.25 7.5z" transform="translate(-15.000000, -750.000000) translate(15.000000, 750.000000)"/>
                    </g>
                </g>
            </g>
        </g>
    </g>
</svg>
