<svg xmlns="http://www.w3.org/2000/svg" width="10" height="10" viewBox="0 0 10 10">
    <g fill="none" fill-rule="evenodd" opacity=".7">
        <g fill="#FFF" fill-rule="nonzero">
            <g>
                <g>
                    <path d="M4.794.097C3.548.094 2.35.586 1.468 1.465.585 2.345.087 3.54.085 4.785.083 6.033.576 7.229 1.456 8.112c.88.882 2.075 1.379 3.322 1.38 1.246.001 2.442-.493 3.324-1.375.882-.88 1.377-2.076 1.377-3.322-.002-1.244-.495-2.435-1.373-3.315C7.228.599 6.037.102 4.794.097zm0 8.485c-1.005 0-1.968-.399-2.679-1.11-.71-.71-1.109-1.674-1.109-2.678 0-1.005.4-1.968 1.11-2.679.71-.71 1.673-1.109 2.678-1.109 1.004 0 1.968.4 2.678 1.11.71.71 1.11 1.673 1.11 2.678C8.58 5.798 8.18 6.76 7.47 7.47c-.71.71-1.672 1.11-2.676 1.112z" transform="translate(-30 -349) translate(30 346) translate(0 3)"/>
                    <path d="M5.236 4.606V2.37c0-.251-.203-.455-.454-.455s-.455.204-.455.455v2.424c0 .12.049.236.134.321l1.418 1.412c.084.088.2.136.321.134.12 0 .236-.048.321-.134.177-.177.177-.464 0-.642L5.236 4.606z" transform="translate(-30 -349) translate(30 346) translate(0 3)"/>
                </g>
            </g>
        </g>
    </g>
</svg>
