<svg xmlns="http://www.w3.org/2000/svg" width="12" height="12" viewBox="0 0 12 12">
    <g fill="none" fill-rule="evenodd" opacity=".6">
        <g fill="#292830" fill-rule="nonzero">
            <g>
                <g>
                    <g>
                        <path d="M5.992.121C4.435.117 2.94.732 1.835 1.831.73 2.932.109 4.425.105 5.983.105 7.54.72 9.035 1.82 10.138c1.1 1.103 2.594 1.724 4.152 1.726 1.559.001 3.053-.617 4.155-1.718C11.23 9.045 11.85 7.55 11.85 5.992c-.002-1.554-.62-3.043-1.717-4.143C9.035.748 7.546.127 5.992.12zm0 10.606c-1.255 0-2.46-.498-3.348-1.387-.888-.888-1.386-2.092-1.386-3.348 0-1.255.498-2.46 1.386-3.348.889-.888 2.093-1.386 3.348-1.386 1.256 0 2.46.498 3.348 1.386.889.889 1.387 2.093 1.387 3.348-.002 1.256-.501 2.459-1.389 3.346-.887.888-2.09 1.387-3.346 1.39z" transform="translate(-30 -488) translate(15 449) translate(15 36) translate(0 3)"/>
                        <path d="M6.545 5.758V2.962c0-.314-.254-.568-.568-.568-.314 0-.568.254-.568.568v3.03c0 .15.06.296.167.402L7.349 8.16c.104.11.25.17.401.167.15 0 .295-.06.401-.167.222-.222.222-.58 0-.803L6.545 5.758z" transform="translate(-30 -488) translate(15 449) translate(15 36) translate(0 3)"/>
                    </g>
                </g>
            </g>
        </g>
    </g>
</svg>
