<svg xmlns="http://www.w3.org/2000/svg" width="25" height="22" viewBox="0 0 25 22">
    <g fill="none" fill-rule="evenodd">
        <g fill="#000" fill-rule="nonzero">
            <g>
                <g>
                    <path d="M19.157 8.744l1.701-.074c.296-.074.592-.37.592-.74V5.86H3.107c-.37 0-.666-.296-.666-.592 0-.37.296-.666.666-.666H6.51l2.367-1.11H2.072c-.443 0-.813.37-.813.814v15.68c0 .444.37.814.813.814h18.566c.443 0 .813-.37.813-.813v-3.624c0-.444-.37-.814-.813-.814h-2.515c-1.11 0-1.997-.888-1.997-2.071V10.74c0-1.848 1.554-1.997 3.032-1.997zM9.393 4.603h8.136l-1.553-3.107-6.583 3.107zm9.541 0h2.515v-.296c0-.444-.37-.814-.813-.814h-2.293l.591 1.11zm-1.183-2.367h2.885c1.109 0 1.997.961 1.997 2.07v3.625c0 .296 0 .517-.148.813h.444c1.109 0 2.07.888 2.07 1.997v2.737c0 1.109-.961 2.071-2.07 2.071h-.444c.148.222.148.518.148.813v3.624c0 1.11-.888 1.997-1.997 1.997H2.07C.96 21.983 0 21.096 0 19.986V4.306c0-1.11.962-2.072 2.071-2.072h9.394L16.05.09c.296-.148.666 0 .813.296l.888 1.848v.002zm5.178 7.766H18.12c-.443 0-.74.296-.74.74v2.736c0 .443.297.813.74.813h4.808c.443 0 .813-.37.813-.813V10.74c0-.443-.37-.739-.813-.739z" transform="translate(-314 -244) translate(15 244) translate(299)"/>
                    <path d="M20.563 12.146c0 1.283-1.924 1.283-1.924 0 0-1.282 1.924-1.282 1.924 0" transform="translate(-314 -244) translate(15 244) translate(299)"/>
                </g>
            </g>
        </g>
    </g>
</svg>
