<svg xmlns="http://www.w3.org/2000/svg" width="11" height="10" viewBox="0 0 11 10">
    <g fill="none" fill-rule="evenodd">
        <g fill="#F7B500" fill-rule="nonzero">
            <g>
                <g>
                    <g>
                        <g>
                            <g>
                                <g>
                                    <path d="M8.54 9.453c.062-.081.086-.185.064-.284L7.96 6.116l2.366-2.101c.106-.094.146-.24.102-.373-.045-.132-.164-.227-.307-.243L6.936 3.05 5.613.213C5.554.086 5.424.004 5.28.004c-.144 0-.274.082-.333.21L3.624 3.05.44 3.399c-.143.016-.262.11-.307.243-.044.133-.004.279.102.372l2.366 2.102-.645 3.052c-.029.137.027.277.143.36.116.08.27.09.395.02L5.28 8.01l2.787 1.538c.063.036.137.052.21.047.104-.009.2-.06.262-.142z" transform="translate(-227.000000, -293.000000) translate(15.000000, 255.000000) translate(151.000000, 36.000000) translate(53.000000, 0.000000) translate(8.000000, 0.000000) translate(0.200001, 2.000000)"/>
                                </g>
                            </g>
                        </g>
                    </g>
                </g>
            </g>
        </g>
    </g>
</svg>
